HIERARCHY
ROOT Hips
{
	OFFSET 0.000000 0.000000 0.000000
	CHANNELS 6 Xposition Yposition Zposition Yrotation Xrotation Zrotation
	JOINT Chest
	{
		OFFSET 0.000000 -0.009281 11.569106
		CHANNELS 3 Yrotation Xrotation Zrotation
		JOINT Chest2
		{
			OFFSET -0.000000 0.016865 9.269641
			CHANNELS 3 Yrotation Xrotation Zrotation
			JOINT Chest3
			{
				OFFSET -0.000000 0.000001 8.374491
				CHANNELS 3 Yrotation Xrotation Zrotation
				JOINT Chest4
				{
					OFFSET -0.000000 0.000001 8.374493
					CHANNELS 3 Yrotation Xrotation Zrotation
					JOINT Neck
					{
						OFFSET -0.000000 0.000002 12.152554
						CHANNELS 3 Yrotation Xrotation Zrotation
						JOINT Head
						{
							OFFSET -0.000000 0.040101 7.802319
							CHANNELS 3 Yrotation Xrotation Zrotation
							End Site
							{
								OFFSET -0.000000 0.020947 14.853096
							}
						}
					}
					JOINT RightCollar
					{
						OFFSET 2.894404 0.000001 6.791374
						CHANNELS 3 Yrotation Xrotation Zrotation
						JOINT RightShoulder
						{
							OFFSET 13.574684 0.000001 0.000000
							CHANNELS 3 Yrotation Xrotation Zrotation
							JOINT RightElbow
							{
								OFFSET 23.923903 0.000002 0.000000
								CHANNELS 3 Yrotation Xrotation Zrotation
								JOINT RightWrist
								{
									OFFSET 19.846718 0.012767 0.000000
									CHANNELS 3 Yrotation Xrotation Zrotation
									End Site
									{
										OFFSET 14.973145 0.000001 0.000000
									}
								}
							}
						}
					}
					JOINT LeftCollar
					{
						OFFSET -2.894404 0.000001 6.791374
						CHANNELS 3 Yrotation Xrotation Zrotation
						JOINT LeftShoulder
						{
							OFFSET -13.574684 -0.000001 0.000000
							CHANNELS 3 Yrotation Xrotation Zrotation
							JOINT LeftElbow
							{
								OFFSET -23.923903 -0.000002 0.000000
								CHANNELS 3 Yrotation Xrotation Zrotation
								JOINT LeftWrist
								{
									OFFSET -19.846718 0.012763 0.000000
									CHANNELS 3 Yrotation Xrotation Zrotation
									End Site
									{
										OFFSET -14.973145 -0.000001 0.000000
									}
								}
							}
						}
					}
				}
			}
		}
	}
	JOINT RightHip
	{
		OFFSET 9.469263 0.004643 0.045487
		CHANNELS 3 Yrotation Xrotation Zrotation
		JOINT RightKnee
		{
			OFFSET 0.000000 0.002661 -40.478676
			CHANNELS 3 Yrotation Xrotation Zrotation
			JOINT RightAnkle
			{
				OFFSET 0.000000 0.049106 -35.224068
				CHANNELS 3 Yrotation Xrotation Zrotation
				JOINT RightToe
				{
					OFFSET -0.000001 12.539529 -6.151390
					CHANNELS 3 Yrotation Xrotation Zrotation
					End Site
					{
						OFFSET -0.000001 5.044994 -1.291870
					}
				}
			}
		}
	}
	JOINT LeftHip
	{
		OFFSET -9.469263 0.004641 0.045487
		CHANNELS 3 Yrotation Xrotation Zrotation
		JOINT LeftKnee
		{
			OFFSET 0.000000 0.002661 -40.478676
			CHANNELS 3 Yrotation Xrotation Zrotation
			JOINT LeftAnkle
			{
				OFFSET 0.000000 0.049106 -35.224068
				CHANNELS 3 Yrotation Xrotation Zrotation
				JOINT LeftToe
				{
					OFFSET -0.000001 12.539529 -6.151390
					CHANNELS 3 Yrotation Xrotation Zrotation
					End Site
					{
						OFFSET -0.000001 5.044994 -1.291870
					}
				}
			}
		}
	}
}
MOTION
Frames: 15
Frame Time: 0.016667
10.331215 5.265738 83.143448 -5.453518 -2.523963 -106.192223 1.038167 -1.569788 0.076038 0.461468 -0.696883 0.026736 0.461468 -0.696883 0.026737 0.346127 -0.522642 0.020577 -1.816311 -17.270325 14.945986 1.629470 3.179973 26.969181 8.196582 6.834018 -7.995010 64.689760 29.057472 8.111108 -1.014509 20.649544 13.676305 -68.310327 23.044847 27.495300 -4.276042 2.652844 -11.773801 -61.583171 37.975483 -62.425620 9.379969 -1.533800 -60.202660 66.545502 -21.425540 -39.404137 0.734175 -8.195917 -1.350947 0.542539 -2.711905 -1.197718 -0.152340 4.304184 -3.427047 -0.071693 -0.055906 -0.010100 -0.089057 -7.890218 -1.899421 0.022748 -2.324577 2.624238 0.562631 4.246760 0.109930 -0.060776 -0.020774 0.009814 
10.310948 5.247723 83.141518 -5.486977 -2.528350 -106.258605 1.023595 -1.564361 0.056948 0.454605 -0.694701 0.019295 0.454605 -0.694701 0.019293 0.340972 -0.521012 0.014988 -1.830377 -17.365865 14.934415 1.581692 3.009626 26.931940 8.205665 6.814128 -7.919348 65.041282 28.641954 8.119085 -0.952675 20.874704 13.735446 -68.785169 24.502964 28.122443 -4.344695 2.408320 -11.826420 -61.780168 38.009603 -62.257598 8.722558 -1.493173 -59.335943 67.401283 -19.588684 -40.448589 0.736746 -8.210390 -1.328651 0.535109 -2.717429 -1.182985 -0.154396 4.312698 -3.382447 -0.066144 -0.062516 -0.009954 -0.098491 -7.925482 -1.877822 0.043629 -2.316527 2.624709 0.562643 4.238366 0.144699 -0.066886 -0.019282 0.010185 
10.289560 5.232372 83.139503 -5.528184 -2.528526 -106.320453 1.012404 -1.549119 0.034042 0.448838 -0.688364 0.009544 0.448838 -0.688366 0.009543 0.336635 -0.516267 0.007663 -1.856562 -17.485566 14.926168 1.508294 2.797033 26.894126 8.251902 6.813439 -7.786295 65.315303 28.268299 8.146770 -0.912729 21.163843 13.732567 -69.341057 25.918147 28.628487 -4.380860 2.309753 -11.679846 -61.897811 37.677301 -61.889778 8.425730 -1.270121 -58.421046 68.303934 -17.891691 -41.657406 0.735751 -8.229397 -1.289672 0.529557 -2.723411 -1.161198 -0.163045 4.319599 -3.395670 -0.060539 -0.067671 -0.011660 -0.116386 -7.969840 -1.869224 0.067693 -2.297565 2.640276 0.565597 4.220619 0.173280 -0.074704 -0.016644 0.010799 
10.266549 5.214106 83.136581 -5.567883 -2.527294 -106.383495 0.998336 -1.520250 0.021148 0.440989 -0.675316 0.005256 0.440989 -0.675317 0.005255 0.330744 -0.506484 0.004431 -1.878838 -17.627523 14.910846 1.435702 2.543857 26.842307 8.293247 6.838004 -7.676063 65.552385 27.885072 8.143532 -0.871730 21.438255 13.701526 -69.794780 27.194695 29.081494 -4.414610 2.080384 -11.630457 -61.956311 37.436492 -61.515450 8.517951 -1.046643 -57.467941 69.064113 -16.235793 -42.674417 0.731854 -8.255887 -1.254178 0.523905 -2.710314 -1.129351 -0.170651 4.319100 -3.391874 -0.056040 -0.074605 -0.010840 -0.129817 -8.014018 -1.859174 0.083861 -2.274464 2.637386 0.575177 4.201591 0.222091 -0.083218 -0.015010 0.010738 
10.241920 5.195011 83.132584 -5.603178 -2.524647 -106.416711 0.978488 -1.490019 -0.004309 0.431572 -0.661633 -0.004786 0.431572 -0.661633 -0.004784 0.323671 -0.496228 -0.003122 -1.898367 -17.768969 14.897379 1.368941 2.290717 26.795158 8.317949 6.823342 -7.596690 65.818763 27.463661 8.170367 -0.863530 21.621341 13.646613 -70.021003 28.169589 29.564156 -4.454281 1.676722 -11.727525 -62.070915 37.476756 -61.285976 8.605363 -0.913431 -56.490855 69.779972 -14.533055 -43.610461 0.740731 -8.285754 -1.265527 0.511408 -2.684623 -1.083210 -0.181477 4.316631 -3.406182 -0.051615 -0.082560 -0.010596 -0.141410 -8.047536 -1.872874 0.107301 -2.255215 2.623296 0.581816 4.185614 0.271569 -0.091337 -0.018195 0.010527 
10.215158 5.172888 83.128288 -5.632131 -2.519291 -106.460103 0.957072 -1.468210 -0.024131 0.421624 -0.651725 -0.011582 0.421624 -0.651726 -0.011586 0.316203 -0.488802 -0.008236 -1.916252 -17.892184 14.886361 1.309552 2.070231 26.755343 8.322894 6.792597 -7.538411 66.119824 27.010446 8.240813 -0.907266 21.711547 13.587268 -70.137232 28.956375 30.044551 -4.551798 1.338047 -11.826431 -62.237148 37.566491 -61.108637 8.447390 -0.842643 -55.513216 70.334775 -12.787106 -44.504765 0.747912 -8.307879 -1.253703 0.497448 -2.657785 -1.042195 -0.194126 4.313767 -3.420537 -0.045951 -0.091108 -0.009484 -0.153542 -8.072000 -1.873486 0.130618 -2.240702 2.609859 0.589475 4.171176 0.318897 -0.100333 -0.019661 0.008968 
10.186437 5.150105 83.124382 -5.663630 -2.512353 -106.498577 0.935295 -1.446633 -0.045688 0.411266 -0.642213 -0.019735 0.411266 -0.642213 -0.019734 0.308426 -0.481673 -0.014370 -1.935968 -18.005682 14.883262 1.251195 1.866780 26.730768 8.345199 6.710462 -7.453113 66.430509 26.593043 8.365746 -0.978244 21.784941 13.539529 -70.353633 29.710968 30.523405 -4.677351 1.117158 -11.824487 -62.484176 37.534727 -60.899558 8.090289 -0.824077 -54.571118 70.789522 -10.904001 -45.383240 0.753583 -8.330333 -1.225614 0.492478 -2.632157 -1.004000 -0.219099 4.309295 -3.458919 -0.039045 -0.097463 -0.009182 -0.166149 -8.098693 -1.851002 0.156687 -2.222278 2.604187 0.586840 4.153847 0.331467 -0.103537 -0.020825 0.008406 
10.154055 5.124727 83.121140 -5.700282 -2.510245 -106.545139 0.918812 -1.431738 -0.058814 0.403022 -0.636133 -0.025311 0.403022 -0.636133 -0.025312 0.302237 -0.477117 -0.018563 -1.962759 -18.111730 14.883928 1.182634 1.677866 26.711780 8.380250 6.651734 -7.352367 66.704003 26.218747 8.490707 -1.065443 21.821570 13.508548 -70.589650 30.448188 30.931430 -4.769742 0.906940 -11.794786 -62.809771 37.497359 -60.667851 7.680315 -0.803003 -53.629286 71.293030 -8.773261 -46.424331 0.758318 -8.345414 -1.165530 0.495165 -2.628174 -0.985801 -0.250386 4.309079 -3.493595 -0.031621 -0.099817 -0.008901 -0.172173 -8.136155 -1.784516 0.178720 -2.190512 2.600317 0.578813 4.129945 0.314310 -0.102849 -0.022733 0.008952 
10.121870 5.099352 83.117912 -5.736003 -2.509742 -106.593817 0.907168 -1.413679 -0.077806 0.397213 -0.627934 -0.034127 0.397213 -0.627933 -0.034128 0.297872 -0.470972 -0.025187 -2.000688 -18.222154 14.896858 1.096775 1.481450 26.711396 8.420691 6.572827 -7.220248 66.949371 25.896399 8.613929 -1.131835 21.817603 13.510064 -70.766361 31.101973 31.240240 -4.857214 0.680481 -11.741346 -63.050658 37.404165 -60.345056 7.450298 -0.680164 -52.679613 71.726740 -6.625049 -47.524057 0.767320 -8.354337 -1.080896 0.499651 -2.635370 -0.986643 -0.285331 4.310953 -3.554943 -0.025712 -0.099036 -0.010246 -0.173407 -8.179252 -1.698776 0.195675 -2.147596 2.612465 0.565713 4.103761 0.270470 -0.097812 -0.025910 0.010027 
10.089224 5.068781 83.114120 -5.761548 -2.508287 -106.658001 0.893655 -1.397703 -0.089892 0.390041 -0.620112 -0.039047 0.390041 -0.620112 -0.039050 0.292489 -0.465108 -0.028892 -2.039770 -18.328456 14.912927 1.010611 1.292371 26.717016 8.450788 6.517323 -7.119608 67.185279 25.548920 8.734983 -1.172880 21.832138 13.514745 -70.956615 31.650653 31.498083 -4.956245 0.476089 -11.708374 -63.116665 37.274248 -59.866765 7.398085 -0.527197 -51.777448 72.154180 -4.796563 -48.486355 0.779643 -8.357856 -1.015818 0.496292 -2.632281 -0.955824 -0.318537 4.306243 -3.600556 -0.020027 -0.098946 -0.009865 -0.168536 -8.219164 -1.592569 0.207917 -2.095097 2.616057 0.548573 4.076399 0.229529 -0.091174 -0.029821 0.010829 
10.056954 5.036337 83.110443 -5.784070 -2.501524 -106.714807 0.876372 -1.383495 -0.103280 0.382005 -0.613195 -0.044449 0.382005 -0.613196 -0.044449 0.286456 -0.459924 -0.032952 -2.076500 -18.428060 14.928760 0.929968 1.115104 26.723849 8.461839 6.450540 -7.041709 67.449416 25.209602 8.895476 -1.209340 21.882338 13.506040 -71.086314 32.161349 31.716086 -5.042849 0.214604 -11.697365 -63.151451 37.180821 -59.386063 7.378285 -0.390683 -50.944035 72.395183 -3.310577 -49.155850 0.788989 -8.358697 -0.983125 0.495104 -2.628468 -0.909662 -0.351357 4.303264 -3.625699 -0.018094 -0.100033 -0.010807 -0.164725 -8.254900 -1.524252 0.220195 -2.041544 2.599094 0.530577 4.045540 0.234419 -0.084846 -0.031638 0.011431 
10.024968 5.005031 83.107765 -5.806963 -2.491615 -106.774920 0.849425 -1.371165 -0.104928 0.370731 -0.607682 -0.044103 0.370731 -0.607683 -0.044106 0.278001 -0.455789 -0.032707 -2.098685 -18.519189 14.937511 0.875219 0.951407 26.723375 8.473185 6.363706 -7.002157 67.764718 24.879280 9.118240 -1.251604 22.004867 13.492028 -71.153762 32.585074 31.921463 -5.138035 -0.039834 -11.745610 -63.159873 37.102110 -58.852031 7.229189 -0.255562 -50.158252 72.469502 -1.966713 -49.652494 0.795261 -8.359470 -0.970763 0.489848 -2.623265 -0.856918 -0.377301 4.299185 -3.638633 -0.019111 -0.101077 -0.011607 -0.169816 -8.284413 -1.491891 0.240035 -2.000487 2.603895 0.511625 4.018526 0.257639 -0.081498 -0.031169 0.010382 
9.993662 4.971790 83.105797 -5.834409 -2.484690 -106.843420 0.819373 -1.367757 -0.100527 0.358223 -0.606100 -0.041140 0.358223 -0.606100 -0.041142 0.268624 -0.454600 -0.030497 -2.114103 -18.600994 14.945542 0.834287 0.803510 26.724811 8.490652 6.327786 -6.971755 68.062821 24.566430 9.301296 -1.267571 22.109572 13.526444 -71.232487 32.938758 32.118753 -5.216505 -0.205343 -11.733556 -63.160460 36.950026 -58.203020 6.952302 -0.114949 -49.420326 72.456812 -0.720513 -50.106565 0.805328 -8.367930 -0.943467 0.480961 -2.612720 -0.829664 -0.399858 4.292740 -3.636074 -0.021214 -0.102148 -0.012352 -0.173833 -8.315094 -1.467211 0.254723 -1.972187 2.638790 0.498825 3.999883 0.267009 -0.081904 -0.030231 0.010190 
9.962078 4.937912 83.103752 -5.865839 -2.479370 -106.918169 0.787297 -1.365572 -0.091245 0.344684 -0.605376 -0.035785 0.344684 -0.605375 -0.035784 0.258475 -0.454051 -0.026498 -2.126685 -18.681402 14.953613 0.798787 0.657585 26.727445 8.528770 6.293518 -6.899589 68.330715 24.311509 9.428529 -1.307643 22.133759 13.594104 -71.312024 33.217495 32.296871 -5.270807 -0.317517 -11.649432 -63.099173 36.703022 -57.457764 6.675339 0.046301 -48.659046 72.392335 0.535626 -50.646563 0.812949 -8.382727 -0.916170 0.474348 -2.597105 -0.806621 -0.421950 4.285257 -3.608089 -0.023283 -0.104657 -0.011820 -0.176706 -8.346718 -1.444925 0.268173 -1.952429 2.678926 0.490195 3.986864 0.279135 -0.086353 -0.029743 0.009153 
9.930832 4.904628 83.101456 -5.899086 -2.472036 -106.992844 0.753500 -1.368137 -0.079925 0.330514 -0.606567 -0.029444 0.330514 -0.606567 -0.029443 0.247854 -0.454941 -0.021755 -2.141335 -18.757209 14.962653 0.760711 0.520385 26.731726 8.568740 6.229933 -6.813020 68.609687 24.032226 9.578093 -1.415107 22.109539 13.608559 -71.294963 33.400974 32.493071 -5.323268 -0.437362 -11.571564 -62.981509 36.440900 -56.690430 6.544754 0.234560 -47.808421 72.394903 1.881531 -51.378428 0.818629 -8.399411 -0.869531 0.464958 -2.581113 -0.796821 -0.436942 4.281069 -3.573333 -0.028644 -0.108863 -0.012241 -0.185515 -8.380348 -1.429037 0.285114 -1.930780 2.693344 0.486269 3.971201 0.319180 -0.092146 -0.028301 0.008394 
